<svg xmlns="http://www.w3.org/2000/svg" xmlns:xlink="http://www.w3.org/1999/xlink" width="40" zoomAndPan="magnify" viewBox="0 0 30 30.000001" height="40" preserveAspectRatio="xMidYMid meet" version="1.0"><defs><clipPath id="ee5cebaee0"><path d="M 5.820312 4 L 23.964844 4 L 23.964844 28.371094 L 5.820312 28.371094 Z M 5.820312 4 " clip-rule="nonzero"/></clipPath><clipPath id="a01bb711e3"><path d="M 6 4 L 23.964844 4 L 23.964844 28.371094 L 6 28.371094 Z M 6 4 " clip-rule="nonzero"/></clipPath><clipPath id="2b0185ca62"><path d="M 5.820312 4 L 23.964844 4 L 23.964844 28.371094 L 5.820312 28.371094 Z M 5.820312 4 " clip-rule="nonzero"/></clipPath><clipPath id="5132e6a546"><path d="M 11 0.789062 L 19 0.789062 L 19 4 L 11 4 Z M 11 0.789062 " clip-rule="nonzero"/></clipPath><clipPath id="327a653593"><path d="M 11 0.789062 L 19 0.789062 L 19 4 L 11 4 Z M 11 0.789062 " clip-rule="nonzero"/></clipPath><clipPath id="edf72d562a"><path d="M 12 0.789062 L 16 0.789062 L 16 3 L 12 3 Z M 12 0.789062 " clip-rule="nonzero"/></clipPath></defs><g clip-path="url(#ee5cebaee0)"><path fill="#a14537" d="M 5.828125 28.371094 L 23.960938 28.371094 L 23.960938 4.402344 L 5.828125 4.402344 Z M 5.828125 28.371094 " fill-opacity="1" fill-rule="nonzero"/></g><g clip-path="url(#a01bb711e3)"><path fill="#f7966f" d="M 6.15625 28.09375 L 6.15625 4.679688 L 10.238281 4.679688 L 10.238281 5.007812 L 6.570312 5.097656 L 6.15625 28.09375 M 19.550781 4.78125 L 19.550781 4.679688 L 23.628906 4.679688 L 19.550781 4.78125 " fill-opacity="1" fill-rule="nonzero"/></g><g clip-path="url(#2b0185ca62)"><path fill="#6b2d22" d="M 23.960938 28.371094 L 5.828125 28.371094 C 5.828125 28.371094 11.390625 28.109375 15.886719 27.285156 L 22.925781 27.285156 L 22.925781 18.746094 C 23.726562 12.535156 23.960938 4.402344 23.960938 4.402344 L 23.960938 28.371094 " fill-opacity="1" fill-rule="nonzero"/></g><path fill="#6b2d22" d="M 15.886719 27.285156 L 7.453125 27.285156 L 7.453125 27.046875 L 17.082031 27.046875 C 16.695312 27.132812 16.296875 27.210938 15.886719 27.285156 M 22.628906 20.757812 L 22.628906 5.632812 L 22.925781 5.632812 L 22.925781 18.746094 C 22.832031 19.445312 22.734375 20.121094 22.628906 20.757812 " fill-opacity="1" fill-rule="nonzero"/><path fill="#4b1e16" d="M 22.925781 27.285156 L 15.886719 27.285156 C 16.296875 27.210938 16.695312 27.132812 17.082031 27.046875 L 22.628906 27.046875 L 22.628906 20.757812 C 22.734375 20.121094 22.832031 19.445312 22.925781 18.746094 L 22.925781 27.285156 " fill-opacity="1" fill-rule="nonzero"/><path fill="#e9e9e9" d="M 7.15625 27.046875 L 22.628906 27.046875 L 22.628906 5.394531 L 7.15625 5.394531 Z M 7.15625 27.046875 " fill-opacity="1" fill-rule="nonzero"/><path fill="#d6d5d5" d="M 22.628906 27.046875 L 7.15625 27.046875 C 7.15625 27.046875 14.554688 26.59375 18.113281 23.105469 C 21.667969 19.617188 22.628906 5.394531 22.628906 5.394531 L 22.628906 27.046875 " fill-opacity="1" fill-rule="nonzero"/><g clip-path="url(#5132e6a546)"><path fill="#9f7d20" d="M 14.882812 2.226562 C 14.625 2.226562 14.414062 2.011719 14.414062 1.75 C 14.414062 1.488281 14.625 1.277344 14.882812 1.277344 C 15.140625 1.277344 15.347656 1.488281 15.347656 1.75 C 15.347656 2.011719 15.140625 2.226562 14.882812 2.226562 M 17.375 2.683594 C 17.050781 1.589844 16.050781 0.792969 14.867188 0.792969 C 13.691406 0.792969 12.691406 1.582031 12.363281 2.671875 C 12.085938 3.226562 11.632812 3.398438 11.382812 3.453125 L 18.351562 3.453125 C 18.101562 3.398438 17.652344 3.226562 17.375 2.683594 " fill-opacity="1" fill-rule="nonzero"/></g><path fill="#e9e9e9" d="M 11.585938 3.394531 L 11.585938 3.394531 M 11.585938 3.394531 C 11.753906 3.328125 11.949219 3.21875 12.125 3.027344 C 11.949219 3.21875 11.753906 3.328125 11.585938 3.394531 M 17.375 2.683594 C 17.375 2.683594 17.375 2.679688 17.375 2.679688 C 17.375 2.679688 17.375 2.683594 17.375 2.683594 M 17.375 2.679688 C 17.375 2.679688 17.375 2.679688 17.375 2.675781 C 17.375 2.679688 17.375 2.679688 17.375 2.679688 M 17.375 2.675781 L 17.375 2.675781 M 17.375 2.671875 C 17.375 2.671875 17.375 2.671875 17.371094 2.671875 C 17.375 2.671875 17.375 2.671875 17.375 2.671875 M 17.371094 2.671875 C 17.371094 2.667969 17.371094 2.667969 17.371094 2.667969 C 17.371094 2.667969 17.371094 2.667969 17.371094 2.671875 M 17.371094 2.667969 C 17.371094 2.667969 17.371094 2.664062 17.371094 2.664062 C 17.371094 2.664062 17.371094 2.667969 17.371094 2.667969 M 17.371094 2.664062 C 17.371094 2.660156 17.367188 2.65625 17.367188 2.652344 C 17.367188 2.65625 17.371094 2.660156 17.371094 2.664062 M 17.367188 2.652344 C 17.367188 2.648438 17.367188 2.648438 17.367188 2.648438 C 17.367188 2.648438 17.367188 2.648438 17.367188 2.652344 M 17.367188 2.648438 C 17.367188 2.648438 17.367188 2.644531 17.363281 2.644531 C 17.367188 2.644531 17.367188 2.648438 17.367188 2.648438 M 17.363281 2.644531 C 17.363281 2.644531 17.363281 2.644531 17.363281 2.640625 C 17.363281 2.644531 17.363281 2.644531 17.363281 2.644531 M 17.363281 2.640625 C 17.363281 2.636719 17.359375 2.632812 17.359375 2.625 C 17.359375 2.632812 17.363281 2.636719 17.363281 2.640625 M 17.359375 2.625 C 17.359375 2.625 17.359375 2.625 17.359375 2.621094 C 17.359375 2.625 17.359375 2.625 17.359375 2.625 M 17.359375 2.621094 C 17.359375 2.621094 17.355469 2.621094 17.355469 2.621094 C 17.355469 2.621094 17.359375 2.621094 17.359375 2.621094 M 17.355469 2.621094 C 17.355469 2.617188 17.355469 2.609375 17.351562 2.605469 C 17.355469 2.609375 17.355469 2.617188 17.355469 2.621094 M 17.351562 2.605469 L 17.351562 2.605469 M 17.351562 2.601562 L 17.351562 2.601562 M 17.351562 2.601562 C 17.351562 2.597656 17.351562 2.597656 17.351562 2.597656 C 17.351562 2.597656 17.351562 2.597656 17.351562 2.601562 M 17.347656 2.597656 C 17.347656 2.597656 17.347656 2.59375 17.347656 2.59375 C 17.347656 2.59375 17.347656 2.597656 17.347656 2.597656 M 17.347656 2.59375 C 17.347656 2.59375 17.347656 2.59375 17.347656 2.589844 C 17.347656 2.59375 17.347656 2.59375 17.347656 2.59375 M 17.347656 2.589844 C 17.347656 2.589844 17.347656 2.585938 17.34375 2.585938 C 17.347656 2.585938 17.347656 2.589844 17.347656 2.589844 M 17.34375 2.585938 C 17.34375 2.582031 17.34375 2.582031 17.34375 2.582031 C 17.34375 2.582031 17.34375 2.582031 17.34375 2.585938 M 17.34375 2.582031 C 17.34375 2.582031 17.34375 2.578125 17.34375 2.578125 C 17.34375 2.578125 17.34375 2.582031 17.34375 2.582031 M 17.34375 2.578125 C 17.34375 2.578125 17.34375 2.578125 17.34375 2.574219 C 17.34375 2.578125 17.34375 2.578125 17.34375 2.578125 M 17.34375 2.574219 C 17.339844 2.574219 17.339844 2.574219 17.339844 2.574219 C 17.339844 2.574219 17.339844 2.574219 17.34375 2.574219 M 17.339844 2.570312 L 17.339844 2.570312 M 17.339844 2.570312 C 17.339844 2.570312 17.339844 2.566406 17.339844 2.566406 C 17.339844 2.566406 17.339844 2.566406 17.339844 2.570312 M 17.335938 2.5625 C 17.335938 2.558594 17.335938 2.558594 17.335938 2.558594 C 17.335938 2.558594 17.335938 2.558594 17.335938 2.5625 M 17.335938 2.558594 L 17.335938 2.558594 M 17.335938 2.554688 L 17.335938 2.554688 M 17.335938 2.550781 C 17.335938 2.550781 17.332031 2.550781 17.332031 2.550781 C 17.332031 2.550781 17.335938 2.550781 17.335938 2.550781 M 17.332031 2.550781 L 17.332031 2.550781 " fill-opacity="1" fill-rule="nonzero"/><g clip-path="url(#327a653593)"><path fill="#91721d" d="M 18.347656 3.453125 L 11.386719 3.453125 C 11.445312 3.441406 11.511719 3.421875 11.585938 3.394531 C 11.753906 3.328125 11.949219 3.21875 12.125 3.027344 L 15.921875 3.027344 C 16.726562 3.011719 16.589844 2.800781 16.3125 2.257812 C 16.136719 1.667969 15.765625 1.164062 15.277344 0.824219 C 16.230469 0.976562 17.011719 1.648438 17.332031 2.550781 C 17.332031 2.550781 17.335938 2.550781 17.335938 2.550781 C 17.335938 2.554688 17.335938 2.554688 17.335938 2.554688 C 17.335938 2.554688 17.335938 2.554688 17.335938 2.558594 C 17.335938 2.558594 17.335938 2.558594 17.335938 2.5625 C 17.335938 2.5625 17.339844 2.566406 17.339844 2.566406 C 17.339844 2.566406 17.339844 2.570312 17.339844 2.570312 C 17.339844 2.574219 17.339844 2.574219 17.339844 2.574219 C 17.339844 2.574219 17.339844 2.574219 17.34375 2.574219 C 17.34375 2.578125 17.34375 2.578125 17.34375 2.578125 C 17.34375 2.578125 17.34375 2.582031 17.34375 2.582031 C 17.34375 2.582031 17.34375 2.582031 17.34375 2.585938 C 17.347656 2.585938 17.347656 2.589844 17.347656 2.589844 C 17.347656 2.59375 17.347656 2.59375 17.347656 2.59375 C 17.347656 2.59375 17.347656 2.597656 17.347656 2.597656 C 17.347656 2.597656 17.351562 2.597656 17.351562 2.597656 C 17.351562 2.597656 17.351562 2.597656 17.351562 2.601562 C 17.351562 2.605469 17.351562 2.605469 17.351562 2.605469 C 17.355469 2.609375 17.355469 2.617188 17.355469 2.621094 C 17.355469 2.621094 17.359375 2.621094 17.359375 2.621094 C 17.359375 2.625 17.359375 2.625 17.359375 2.625 C 17.359375 2.632812 17.363281 2.636719 17.363281 2.640625 C 17.363281 2.644531 17.363281 2.644531 17.363281 2.644531 C 17.367188 2.644531 17.367188 2.648438 17.367188 2.648438 C 17.367188 2.648438 17.367188 2.648438 17.367188 2.652344 C 17.367188 2.65625 17.371094 2.660156 17.371094 2.664062 C 17.371094 2.664062 17.371094 2.667969 17.371094 2.667969 C 17.371094 2.667969 17.371094 2.667969 17.371094 2.671875 C 17.375 2.671875 17.375 2.671875 17.375 2.671875 C 17.375 2.671875 17.375 2.675781 17.375 2.675781 C 17.375 2.679688 17.375 2.679688 17.375 2.679688 C 17.375 2.679688 17.375 2.683594 17.375 2.683594 C 17.652344 3.226562 18.097656 3.398438 18.347656 3.453125 " fill-opacity="1" fill-rule="nonzero"/></g><path fill="#d5a92c" d="M 10.476562 3.453125 C 10.34375 3.453125 10.238281 3.5625 10.238281 3.699219 L 10.238281 6.328125 L 19.550781 6.328125 L 19.550781 3.699219 C 19.550781 3.5625 19.441406 3.453125 19.308594 3.453125 L 10.476562 3.453125 " fill-opacity="1" fill-rule="nonzero"/><path fill="#af8b24" d="M 10.238281 6.328125 L 10.238281 5.542969 C 10.238281 5.542969 16.328125 5.542969 17.839844 5.542969 C 19.351562 5.542969 19.097656 3.453125 19.097656 3.453125 L 19.308594 3.453125 C 19.441406 3.453125 19.550781 3.5625 19.550781 3.699219 L 19.550781 5.734375 L 10.238281 5.734375 L 10.238281 6.328125 " fill-opacity="1" fill-rule="nonzero"/><path fill="#e9ce33" d="M 16.546875 5.328125 C 15.269531 5.328125 10.4375 5.328125 10.4375 5.328125 L 10.4375 3.945312 C 10.4375 3.8125 10.546875 3.699219 10.679688 3.699219 L 17.890625 3.699219 L 17.890625 4.308594 C 17.890625 4.308594 17.820312 5.328125 16.546875 5.328125 " fill-opacity="1" fill-rule="nonzero"/><path fill="#ecc654" d="M 10.238281 6.328125 L 19.550781 6.328125 L 19.550781 5.734375 L 10.238281 5.734375 Z M 10.238281 6.328125 " fill-opacity="1" fill-rule="nonzero"/><path fill="#c3a346" d="M 19.550781 6.328125 L 10.238281 6.328125 L 10.238281 6.148438 L 19.285156 6.148438 L 19.285156 5.734375 L 19.550781 5.734375 L 19.550781 6.328125 " fill-opacity="1" fill-rule="nonzero"/><path fill="#f7e184" d="M 16.488281 6.066406 C 15.226562 6.066406 10.453125 6.066406 10.453125 6.066406 L 10.453125 5.824219 L 17.816406 5.824219 L 17.816406 5.847656 C 17.816406 5.847656 17.75 6.066406 16.488281 6.066406 " fill-opacity="1" fill-rule="nonzero"/><g clip-path="url(#edf72d562a)"><path fill="#b49726" d="M 13.800781 2.917969 C 13.277344 2.917969 12.671875 2.886719 12.722656 2.742188 C 12.746094 2.605469 13.085938 1.933594 13.171875 1.824219 C 13.457031 1.386719 14.117188 0.972656 14.667969 0.972656 C 14.746094 0.972656 14.820312 0.980469 14.894531 1 C 14.917969 1.003906 14.929688 1.03125 14.925781 1.054688 C 14.902344 1.1875 14.71875 1.191406 14.605469 1.242188 C 14.476562 1.300781 14.363281 1.421875 14.273438 1.539062 C 14.097656 1.769531 14.082031 2.238281 14.375 2.382812 C 14.449219 2.417969 14.523438 2.429688 14.601562 2.429688 C 14.660156 2.429688 14.714844 2.421875 14.773438 2.417969 C 14.910156 2.40625 15.046875 2.386719 15.179688 2.386719 C 15.191406 2.386719 15.199219 2.386719 15.210938 2.386719 C 15.320312 2.386719 15.65625 2.4375 15.566406 2.632812 C 15.515625 2.738281 15.359375 2.789062 15.253906 2.820312 C 15.125 2.859375 14.703125 2.90625 14.550781 2.90625 C 14.535156 2.90625 14.523438 2.90625 14.511719 2.90625 C 14.507812 2.90625 14.503906 2.90625 14.496094 2.90625 C 14.449219 2.90625 14.355469 2.910156 14.234375 2.910156 C 14.109375 2.914062 13.960938 2.917969 13.800781 2.917969 " fill-opacity="1" fill-rule="nonzero"/></g><path fill="#f7f7f7" d="M 11.246094 23.480469 C 11.210938 23.480469 11.175781 23.480469 11.140625 23.480469 C 10.71875 23.46875 10.285156 23.390625 9.914062 23.175781 C 9.496094 22.929688 9.230469 22.550781 9.039062 22.105469 C 8.542969 20.972656 8.441406 19.730469 8.289062 18.511719 C 8.117188 17.171875 7.933594 15.828125 7.882812 14.472656 C 7.835938 13.164062 7.9375 11.875 8.234375 10.597656 C 8.425781 9.761719 8.703125 8.898438 9.347656 8.304688 C 9.707031 7.976562 10.136719 7.75 10.589844 7.582031 C 11.023438 7.417969 11.472656 7.300781 11.929688 7.214844 L 14.019531 7.214844 C 12.945312 7.625 12.179688 8.679688 12.179688 9.917969 C 12.179688 9.917969 12.179688 9.921875 12.179688 9.921875 C 12.179688 9.921875 12.179688 9.925781 12.179688 9.925781 C 12.179688 9.925781 12.179688 9.929688 12.179688 9.929688 C 12.179688 9.933594 12.179688 9.9375 12.179688 9.9375 C 12.179688 9.941406 12.179688 9.941406 12.179688 9.941406 C 12.179688 9.945312 12.179688 9.945312 12.179688 9.945312 C 12.179688 9.949219 12.179688 9.953125 12.179688 9.953125 C 12.179688 9.957031 12.179688 9.957031 12.179688 9.957031 C 12.179688 9.957031 12.179688 9.957031 12.179688 9.960938 C 12.179688 9.964844 12.179688 9.96875 12.179688 9.972656 C 12.179688 9.972656 12.179688 9.972656 12.179688 9.976562 C 12.210938 11.542969 13.46875 12.804688 15.019531 12.804688 C 16.585938 12.804688 17.859375 11.511719 17.859375 9.917969 C 17.859375 8.679688 17.09375 7.625 16.015625 7.214844 L 19.253906 7.214844 C 20.585938 7.292969 20.492188 8.355469 20.421875 8.929688 C 20.355469 9.457031 20.253906 9.984375 20.167969 10.511719 C 20.070312 11.105469 19.972656 11.699219 19.855469 12.289062 C 19.625 13.46875 19.332031 14.644531 18.855469 15.75 C 18.648438 16.242188 18.390625 16.707031 18.140625 17.175781 C 17.914062 17.597656 17.6875 18.015625 17.449219 18.429688 C 16.960938 19.28125 16.4375 20.117188 15.820312 20.878906 C 14.683594 22.277344 13.101562 23.480469 11.246094 23.480469 " fill-opacity="1" fill-rule="nonzero"/><path fill="#61cbdd" d="M 17.859375 9.917969 C 17.859375 11.511719 16.585938 12.804688 15.019531 12.804688 C 13.449219 12.804688 12.179688 11.511719 12.179688 9.917969 C 12.179688 8.324219 13.449219 7.03125 15.019531 7.03125 C 16.585938 7.03125 17.859375 8.324219 17.859375 9.917969 " fill-opacity="1" fill-rule="nonzero"/><path fill="#e9e9e9" d="M 14.359375 11.925781 L 15.675781 11.925781 L 15.675781 7.914062 L 14.359375 7.914062 Z M 14.359375 11.925781 " fill-opacity="1" fill-rule="nonzero"/><path fill="#e9e9e9" d="M 13.042969 10.585938 L 16.992188 10.585938 L 16.992188 9.25 L 13.042969 9.25 Z M 13.042969 10.585938 " fill-opacity="1" fill-rule="nonzero"/><path fill="#89d8e9" d="M 12.824219 11.75 C 12.429688 11.265625 12.191406 10.648438 12.179688 9.976562 C 12.179688 9.972656 12.179688 9.972656 12.179688 9.972656 C 12.179688 9.96875 12.179688 9.964844 12.179688 9.960938 C 12.179688 9.960938 12.179688 9.964844 12.179688 9.960938 C 12.179688 9.957031 12.179688 9.957031 12.179688 9.957031 C 12.179688 9.957031 12.179688 9.957031 12.179688 9.953125 C 12.179688 9.953125 12.179688 9.949219 12.179688 9.945312 C 12.179688 9.945312 12.179688 9.945312 12.179688 9.941406 C 12.179688 9.941406 12.179688 9.941406 12.179688 9.9375 C 12.179688 9.9375 12.179688 9.933594 12.179688 9.929688 C 12.179688 9.929688 12.179688 9.929688 12.179688 9.925781 C 12.179688 9.925781 12.179688 9.921875 12.179688 9.921875 C 12.179688 9.921875 12.179688 9.917969 12.179688 9.917969 C 12.179688 8.324219 13.449219 7.03125 15.019531 7.03125 C 15.019531 7.03125 15.023438 7.03125 15.023438 7.03125 C 15.027344 7.03125 15.027344 7.03125 15.027344 7.03125 C 15.027344 7.03125 15.03125 7.03125 15.03125 7.03125 C 15.03125 7.03125 15.03125 7.03125 15.035156 7.03125 C 15.039062 7.03125 15.039062 7.03125 15.039062 7.03125 C 15.042969 7.03125 15.042969 7.03125 15.046875 7.03125 C 15.046875 7.03125 15.046875 7.03125 15.050781 7.03125 C 15.050781 7.03125 15.050781 7.03125 15.054688 7.03125 C 15.058594 7.03125 15.058594 7.03125 15.058594 7.03125 C 15.058594 7.03125 15.0625 7.03125 15.0625 7.03125 C 15.0625 7.03125 15.0625 7.03125 15.066406 7.03125 C 15.066406 7.03125 15.070312 7.03125 15.070312 7.03125 C 15.074219 7.03125 15.078125 7.03125 15.078125 7.03125 C 15.078125 7.03125 15.082031 7.03125 15.082031 7.03125 C 15.082031 7.03125 15.085938 7.03125 15.085938 7.03125 C 15.089844 7.03125 15.089844 7.035156 15.089844 7.035156 C 15.09375 7.035156 15.09375 7.035156 15.097656 7.035156 C 16.144531 7.0625 17.050781 7.667969 17.519531 8.550781 C 17.222656 8.777344 16.90625 9.011719 16.574219 9.25 L 15.675781 9.25 L 15.675781 7.914062 L 14.359375 7.914062 L 14.359375 9.25 L 13.042969 9.25 L 13.042969 10.585938 L 14.359375 10.585938 L 14.359375 10.761719 C 13.835938 11.109375 13.316406 11.441406 12.824219 11.75 " fill-opacity="1" fill-rule="nonzero"/><path fill="#f2f2f2" d="M 14.359375 10.761719 L 14.359375 10.585938 L 14.628906 10.585938 C 14.539062 10.644531 14.449219 10.703125 14.359375 10.761719 M 15.675781 9.25 L 14.359375 9.25 L 14.359375 7.914062 L 15.675781 7.914062 L 15.675781 9.25 " fill-opacity="1" fill-rule="nonzero"/><path fill="#f2f2f2" d="M 14.628906 10.585938 L 13.042969 10.585938 L 13.042969 9.25 L 16.574219 9.25 C 15.957031 9.695312 15.292969 10.148438 14.628906 10.585938 " fill-opacity="1" fill-rule="nonzero"/><path fill="#222031" d="M 21.277344 14.203125 L 8.984375 14.203125 L 8.984375 13.855469 L 21.277344 13.855469 L 21.277344 14.203125 " fill-opacity="1" fill-rule="nonzero"/><path fill="#222031" d="M 21.277344 16.632812 L 8.984375 16.632812 L 8.984375 16.289062 L 21.277344 16.289062 L 21.277344 16.632812 " fill-opacity="1" fill-rule="nonzero"/><path fill="#222031" d="M 21.277344 17.132812 L 8.984375 17.132812 L 8.984375 16.785156 L 21.277344 16.785156 L 21.277344 17.132812 " fill-opacity="1" fill-rule="nonzero"/><path fill="#222031" d="M 21.277344 17.632812 L 8.984375 17.632812 L 8.984375 17.285156 L 21.277344 17.285156 L 21.277344 17.632812 " fill-opacity="1" fill-rule="nonzero"/><path fill="#222031" d="M 21.277344 18.128906 L 8.984375 18.128906 L 8.984375 17.785156 L 21.277344 17.785156 L 21.277344 18.128906 " fill-opacity="1" fill-rule="nonzero"/><path fill="#222031" d="M 21.277344 18.628906 L 8.984375 18.628906 L 8.984375 18.285156 L 21.277344 18.285156 L 21.277344 18.628906 " fill-opacity="1" fill-rule="nonzero"/><path fill="#ee3231" d="M 14.84375 20.945312 L 8.871094 20.945312 L 8.871094 20.285156 L 14.84375 20.285156 L 14.84375 20.945312 " fill-opacity="1" fill-rule="nonzero"/><path fill="#40bfbc" d="M 18.742188 20.945312 L 15.234375 20.945312 L 15.234375 20.285156 L 18.742188 20.285156 L 18.742188 20.945312 " fill-opacity="1" fill-rule="nonzero"/><path fill="#d5a92c" d="M 21.382812 20.945312 L 19.195312 20.945312 L 19.195312 20.285156 L 21.382812 20.285156 L 21.382812 20.945312 " fill-opacity="1" fill-rule="nonzero"/><path fill="#222031" d="M 14.730469 21.347656 L 8.984375 21.347656 L 8.984375 21.175781 L 14.730469 21.175781 L 14.730469 21.347656 " fill-opacity="1" fill-rule="nonzero"/><path fill="#222031" d="M 18.625 21.347656 L 15.351562 21.347656 L 15.351562 21.175781 L 18.625 21.175781 L 18.625 21.347656 " fill-opacity="1" fill-rule="nonzero"/><path fill="#222031" d="M 21.203125 21.347656 L 19.371094 21.347656 L 19.371094 21.175781 L 21.203125 21.175781 L 21.203125 21.347656 " fill-opacity="1" fill-rule="nonzero"/><path fill="#222031" d="M 14.730469 21.714844 L 8.984375 21.714844 L 8.984375 21.542969 L 14.730469 21.542969 L 14.730469 21.714844 " fill-opacity="1" fill-rule="nonzero"/><path fill="#222031" d="M 18.625 21.714844 L 15.351562 21.714844 L 15.351562 21.542969 L 18.625 21.542969 L 18.625 21.714844 " fill-opacity="1" fill-rule="nonzero"/><path fill="#222031" d="M 21.203125 21.714844 L 19.371094 21.714844 L 19.371094 21.542969 L 21.203125 21.542969 L 21.203125 21.714844 " fill-opacity="1" fill-rule="nonzero"/><path fill="#222031" d="M 14.730469 22.082031 L 8.984375 22.082031 L 8.984375 21.914062 L 14.730469 21.914062 L 14.730469 22.082031 " fill-opacity="1" fill-rule="nonzero"/><path fill="#222031" d="M 18.625 22.082031 L 15.351562 22.082031 L 15.351562 21.914062 L 18.625 21.914062 L 18.625 22.082031 " fill-opacity="1" fill-rule="nonzero"/><path fill="#222031" d="M 21.203125 22.082031 L 19.371094 22.082031 L 19.371094 21.914062 L 21.203125 21.914062 L 21.203125 22.082031 " fill-opacity="1" fill-rule="nonzero"/><path fill="#222031" d="M 14.730469 22.449219 L 8.984375 22.449219 L 8.984375 22.28125 L 14.730469 22.28125 L 14.730469 22.449219 " fill-opacity="1" fill-rule="nonzero"/><path fill="#222031" d="M 18.625 22.449219 L 15.351562 22.449219 L 15.351562 22.28125 L 18.625 22.28125 L 18.625 22.449219 " fill-opacity="1" fill-rule="nonzero"/><path fill="#222031" d="M 21.203125 22.449219 L 19.371094 22.449219 L 19.371094 22.28125 L 21.203125 22.28125 L 21.203125 22.449219 " fill-opacity="1" fill-rule="nonzero"/><path fill="#222031" d="M 14.730469 22.816406 L 8.984375 22.816406 L 8.984375 22.648438 L 14.730469 22.648438 L 14.730469 22.816406 " fill-opacity="1" fill-rule="nonzero"/><path fill="#222031" d="M 18.625 22.816406 L 15.351562 22.816406 L 15.351562 22.648438 L 18.625 22.648438 L 18.625 22.816406 " fill-opacity="1" fill-rule="nonzero"/><path fill="#222031" d="M 21.203125 22.816406 L 19.371094 22.816406 L 19.371094 22.648438 L 21.203125 22.648438 L 21.203125 22.816406 " fill-opacity="1" fill-rule="nonzero"/><path fill="#222031" d="M 14.730469 23.1875 L 8.984375 23.1875 L 8.984375 23.015625 L 14.730469 23.015625 L 14.730469 23.1875 " fill-opacity="1" fill-rule="nonzero"/><path fill="#222031" d="M 18.625 23.1875 L 15.351562 23.1875 L 15.351562 23.015625 L 18.625 23.015625 L 18.625 23.1875 " fill-opacity="1" fill-rule="nonzero"/><path fill="#222031" d="M 21.203125 23.1875 L 19.371094 23.1875 L 19.371094 23.015625 L 21.203125 23.015625 L 21.203125 23.1875 " fill-opacity="1" fill-rule="nonzero"/><path fill="#222031" d="M 14.730469 23.554688 L 8.984375 23.554688 L 8.984375 23.382812 L 14.730469 23.382812 L 14.730469 23.554688 " fill-opacity="1" fill-rule="nonzero"/><path fill="#222031" d="M 18.625 23.554688 L 15.351562 23.554688 L 15.351562 23.382812 L 18.625 23.382812 L 18.625 23.554688 " fill-opacity="1" fill-rule="nonzero"/><path fill="#222031" d="M 21.203125 23.554688 L 19.371094 23.554688 L 19.371094 23.382812 L 21.203125 23.382812 L 21.203125 23.554688 " fill-opacity="1" fill-rule="nonzero"/><path fill="#222031" d="M 14.730469 23.921875 L 8.984375 23.921875 L 8.984375 23.75 L 14.730469 23.75 L 14.730469 23.921875 " fill-opacity="1" fill-rule="nonzero"/><path fill="#222031" d="M 18.625 23.921875 L 15.351562 23.921875 L 15.351562 23.75 L 18.625 23.75 L 18.625 23.921875 " fill-opacity="1" fill-rule="nonzero"/><path fill="#222031" d="M 21.203125 23.921875 L 19.371094 23.921875 L 19.371094 23.75 L 21.203125 23.75 L 21.203125 23.921875 " fill-opacity="1" fill-rule="nonzero"/><path fill="#222031" d="M 14.730469 24.289062 L 8.984375 24.289062 L 8.984375 24.117188 L 14.730469 24.117188 L 14.730469 24.289062 " fill-opacity="1" fill-rule="nonzero"/><path fill="#222031" d="M 18.625 24.289062 L 15.351562 24.289062 L 15.351562 24.117188 L 18.625 24.117188 L 18.625 24.289062 " fill-opacity="1" fill-rule="nonzero"/><path fill="#222031" d="M 21.203125 24.289062 L 19.371094 24.289062 L 19.371094 24.117188 L 21.203125 24.117188 L 21.203125 24.289062 " fill-opacity="1" fill-rule="nonzero"/><path fill="#222031" d="M 14.730469 24.65625 L 8.984375 24.65625 L 8.984375 24.484375 L 14.730469 24.484375 L 14.730469 24.65625 " fill-opacity="1" fill-rule="nonzero"/><path fill="#222031" d="M 18.625 24.65625 L 15.351562 24.65625 L 15.351562 24.484375 L 18.625 24.484375 L 18.625 24.65625 " fill-opacity="1" fill-rule="nonzero"/><path fill="#222031" d="M 21.203125 24.65625 L 19.371094 24.65625 L 19.371094 24.484375 L 21.203125 24.484375 L 21.203125 24.65625 " fill-opacity="1" fill-rule="nonzero"/><path fill="#222031" d="M 14.730469 25.023438 L 8.984375 25.023438 L 8.984375 24.851562 L 14.730469 24.851562 L 14.730469 25.023438 " fill-opacity="1" fill-rule="nonzero"/><path fill="#222031" d="M 18.625 25.023438 L 15.351562 25.023438 L 15.351562 24.851562 L 18.625 24.851562 L 18.625 25.023438 " fill-opacity="1" fill-rule="nonzero"/><path fill="#222031" d="M 21.203125 25.023438 L 19.371094 25.023438 L 19.371094 24.851562 L 21.203125 24.851562 L 21.203125 25.023438 " fill-opacity="1" fill-rule="nonzero"/><path fill="#222031" d="M 14.730469 25.390625 L 8.984375 25.390625 L 8.984375 25.21875 L 14.730469 25.21875 L 14.730469 25.390625 " fill-opacity="1" fill-rule="nonzero"/><path fill="#222031" d="M 18.625 25.390625 L 15.351562 25.390625 L 15.351562 25.21875 L 18.625 25.21875 L 18.625 25.390625 " fill-opacity="1" fill-rule="nonzero"/><path fill="#222031" d="M 21.203125 25.390625 L 19.371094 25.390625 L 19.371094 25.21875 L 21.203125 25.21875 L 21.203125 25.390625 " fill-opacity="1" fill-rule="nonzero"/><path fill="#222031" d="M 12.320312 19.128906 L 8.984375 19.128906 L 8.984375 18.78125 L 12.320312 18.78125 L 12.320312 19.128906 " fill-opacity="1" fill-rule="nonzero"/><path fill="#222031" d="M 13.800781 14.753906 L 8.984375 14.753906 L 8.984375 14.410156 L 13.800781 14.410156 L 13.800781 14.753906 " fill-opacity="1" fill-rule="nonzero"/></svg>