<svg xmlns="http://www.w3.org/2000/svg" xmlns:xlink="http://www.w3.org/1999/xlink" width="40" zoomAndPan="magnify" viewBox="0 0 30 30.000001" height="40" preserveAspectRatio="xMidYMid meet" version="1.0"><defs><clipPath id="2995d20c9a"><path d="M 3 4 L 27 4 L 27 25.402344 L 3 25.402344 Z M 3 4 " clip-rule="nonzero"/></clipPath><clipPath id="7af4417fc0"><path d="M 1.359375 2.902344 L 28.9375 2.902344 L 28.9375 14 L 1.359375 14 Z M 1.359375 2.902344 " clip-rule="nonzero"/></clipPath><clipPath id="4e3c3c35a4"><path d="M 7 13 L 15 13 L 15 25.402344 L 7 25.402344 Z M 7 13 " clip-rule="nonzero"/></clipPath><clipPath id="9240fbf3ae"><path d="M 8 13 L 14 13 L 14 25.402344 L 8 25.402344 Z M 8 13 " clip-rule="nonzero"/></clipPath></defs><g clip-path="url(#2995d20c9a)"><path fill="#eef0d4" d="M 26.484375 25.402344 L 3.820312 25.402344 L 3.820312 12.75 L 15.152344 4.636719 L 26.484375 12.75 L 26.484375 25.402344 " fill-opacity="1" fill-rule="nonzero"/></g><g clip-path="url(#7af4417fc0)"><path fill="#f14624" d="M 15.152344 2.902344 L 1.367188 12.769531 L 2.378906 13.777344 L 15.152344 4.636719 L 27.925781 13.777344 L 28.9375 12.769531 L 15.152344 2.902344 " fill-opacity="1" fill-rule="nonzero"/></g><g clip-path="url(#4e3c3c35a4)"><path fill="#c1d0b8" d="M 14.445312 13.046875 L 7.46875 13.046875 L 7.46875 25.402344 L 14.445312 25.402344 L 14.445312 13.046875 " fill-opacity="1" fill-rule="nonzero"/><path fill="#5a3114" d="M 14.007812 13.535156 L 7.90625 13.535156 L 7.90625 25.402344 L 14.007812 25.402344 L 14.007812 13.535156 " fill-opacity="1" fill-rule="nonzero"/></g><g clip-path="url(#9240fbf3ae)"><path fill="#502b11" d="M 13.679688 13.777344 L 8.234375 13.777344 L 8.234375 25.402344 L 13.679688 25.402344 L 13.679688 13.777344 " fill-opacity="1" fill-rule="nonzero"/><path fill="#723f1b" d="M 13.679688 13.777344 L 8.234375 13.777344 L 8.234375 25.402344 Z M 13.679688 13.777344 " fill-opacity="1" fill-rule="nonzero"/></g><path fill="#5a3114" d="M 25.015625 14.238281 L 17.386719 14.238281 L 17.386719 22.691406 L 25.015625 22.691406 L 25.015625 14.238281 " fill-opacity="1" fill-rule="nonzero"/><path fill="#723f1b" d="M 25.015625 14.238281 L 17.386719 14.238281 L 17.386719 22.691406 Z M 25.015625 14.238281 " fill-opacity="1" fill-rule="nonzero"/><path fill="#67bbc4" d="M 24.308594 15.019531 L 18.089844 15.019531 L 18.089844 21.914062 L 24.308594 21.914062 L 24.308594 15.019531 " fill-opacity="1" fill-rule="nonzero"/><path fill="#96d5d3" d="M 24.089844 15.265625 L 18.3125 15.265625 L 18.3125 21.667969 L 24.089844 21.667969 L 24.089844 15.265625 " fill-opacity="1" fill-rule="nonzero"/><path fill="#5a3114" d="M 21.453125 15.019531 L 20.847656 15.019531 L 20.847656 22.691406 L 21.453125 22.691406 L 21.453125 15.019531 " fill-opacity="1" fill-rule="nonzero"/><path fill="#5a3114" d="M 24.308594 19.042969 L 24.308594 18.453125 L 18.0625 18.453125 L 18.0625 19.042969 L 24.308594 19.042969 " fill-opacity="1" fill-rule="nonzero"/><path fill="#ffffff" d="M 18.421875 15.484375 C 18.421875 15.484375 18.457031 15.507812 18.515625 15.542969 C 18.570312 15.582031 18.652344 15.636719 18.746094 15.707031 C 18.839844 15.777344 18.945312 15.863281 19.058594 15.957031 C 19.167969 16.050781 19.28125 16.15625 19.394531 16.261719 C 19.507812 16.367188 19.617188 16.476562 19.71875 16.582031 C 19.816406 16.691406 19.90625 16.792969 19.980469 16.882812 C 20.058594 16.972656 20.117188 17.050781 20.15625 17.105469 C 20.199219 17.160156 20.21875 17.195312 20.21875 17.195312 C 20.21875 17.195312 20.183594 17.171875 20.128906 17.136719 C 20.070312 17.097656 19.988281 17.042969 19.894531 16.972656 C 19.800781 16.902344 19.695312 16.816406 19.585938 16.722656 C 19.472656 16.628906 19.359375 16.523438 19.246094 16.417969 C 19.132812 16.3125 19.023438 16.203125 18.925781 16.097656 C 18.824219 15.988281 18.734375 15.886719 18.660156 15.796875 C 18.585938 15.707031 18.523438 15.628906 18.484375 15.574219 C 18.441406 15.519531 18.421875 15.484375 18.421875 15.484375 " fill-opacity="1" fill-rule="nonzero"/><path fill="#ffffff" d="M 18.574219 16.339844 C 18.574219 16.339844 18.601562 16.355469 18.648438 16.386719 C 18.691406 16.414062 18.757812 16.460938 18.832031 16.515625 C 18.90625 16.570312 18.988281 16.636719 19.078125 16.710938 C 19.164062 16.785156 19.253906 16.867188 19.34375 16.953125 C 19.523438 17.121094 19.6875 17.300781 19.804688 17.441406 C 19.925781 17.582031 19.992188 17.6875 19.992188 17.6875 C 19.992188 17.6875 19.886719 17.625 19.738281 17.511719 C 19.589844 17.402344 19.402344 17.246094 19.226562 17.074219 C 19.136719 16.992188 19.050781 16.90625 18.972656 16.820312 C 18.894531 16.738281 18.820312 16.65625 18.761719 16.585938 C 18.703125 16.515625 18.65625 16.453125 18.625 16.410156 C 18.59375 16.367188 18.574219 16.339844 18.574219 16.339844 " fill-opacity="1" fill-rule="nonzero"/><path fill="#ffffff" d="M 21.984375 15.484375 C 21.984375 15.484375 22.019531 15.507812 22.078125 15.542969 C 22.132812 15.582031 22.214844 15.636719 22.308594 15.707031 C 22.402344 15.777344 22.507812 15.863281 22.621094 15.957031 C 22.730469 16.050781 22.84375 16.15625 22.957031 16.261719 C 23.070312 16.367188 23.179688 16.476562 23.28125 16.582031 C 23.378906 16.691406 23.46875 16.792969 23.542969 16.882812 C 23.621094 16.972656 23.679688 17.050781 23.71875 17.105469 C 23.761719 17.160156 23.78125 17.195312 23.78125 17.195312 C 23.78125 17.195312 23.746094 17.171875 23.691406 17.136719 C 23.632812 17.097656 23.550781 17.042969 23.457031 16.972656 C 23.363281 16.902344 23.257812 16.816406 23.148438 16.722656 C 23.035156 16.628906 22.921875 16.523438 22.808594 16.417969 C 22.695312 16.3125 22.585938 16.203125 22.488281 16.097656 C 22.386719 15.988281 22.296875 15.886719 22.222656 15.796875 C 22.148438 15.707031 22.085938 15.628906 22.046875 15.574219 C 22.003906 15.519531 21.984375 15.484375 21.984375 15.484375 " fill-opacity="1" fill-rule="nonzero"/><path fill="#ffffff" d="M 22.136719 16.339844 C 22.136719 16.339844 22.164062 16.355469 22.210938 16.386719 C 22.253906 16.414062 22.320312 16.460938 22.394531 16.515625 C 22.46875 16.570312 22.550781 16.636719 22.640625 16.710938 C 22.726562 16.785156 22.816406 16.867188 22.90625 16.953125 C 23.082031 17.121094 23.25 17.300781 23.367188 17.441406 C 23.488281 17.582031 23.554688 17.6875 23.554688 17.6875 C 23.554688 17.6875 23.449219 17.625 23.300781 17.511719 C 23.152344 17.402344 22.964844 17.246094 22.789062 17.074219 C 22.699219 16.992188 22.613281 16.90625 22.535156 16.820312 C 22.457031 16.738281 22.382812 16.65625 22.324219 16.585938 C 22.265625 16.515625 22.21875 16.453125 22.1875 16.410156 C 22.15625 16.367188 22.136719 16.339844 22.136719 16.339844 " fill-opacity="1" fill-rule="nonzero"/><path fill="#ffffff" d="M 18.386719 19.042969 C 18.386719 19.042969 18.421875 19.0625 18.476562 19.101562 C 18.535156 19.140625 18.617188 19.195312 18.710938 19.265625 C 18.804688 19.335938 18.910156 19.421875 19.019531 19.515625 C 19.132812 19.609375 19.246094 19.710938 19.359375 19.820312 C 19.472656 19.925781 19.582031 20.035156 19.679688 20.140625 C 19.78125 20.246094 19.871094 20.347656 19.945312 20.4375 C 20.019531 20.527344 20.082031 20.605469 20.121094 20.660156 C 20.164062 20.71875 20.183594 20.75 20.183594 20.75 C 20.183594 20.75 20.148438 20.730469 20.089844 20.691406 C 20.035156 20.65625 19.953125 20.601562 19.859375 20.527344 C 19.765625 20.460938 19.660156 20.375 19.546875 20.28125 C 19.4375 20.1875 19.320312 20.082031 19.210938 19.976562 C 19.097656 19.867188 18.988281 19.757812 18.886719 19.652344 C 18.789062 19.546875 18.699219 19.445312 18.625 19.355469 C 18.546875 19.265625 18.488281 19.1875 18.449219 19.132812 C 18.40625 19.078125 18.386719 19.042969 18.386719 19.042969 " fill-opacity="1" fill-rule="nonzero"/><path fill="#ffffff" d="M 18.539062 19.898438 C 18.539062 19.898438 18.566406 19.914062 18.613281 19.941406 C 18.65625 19.972656 18.722656 20.015625 18.792969 20.074219 C 18.867188 20.128906 18.953125 20.195312 19.039062 20.269531 C 19.128906 20.34375 19.21875 20.425781 19.308594 20.507812 C 19.484375 20.675781 19.652344 20.855469 19.769531 21 C 19.886719 21.140625 19.957031 21.246094 19.957031 21.246094 C 19.957031 21.246094 19.847656 21.179688 19.703125 21.070312 C 19.554688 20.957031 19.367188 20.800781 19.1875 20.632812 C 19.101562 20.546875 19.015625 20.460938 18.933594 20.378906 C 18.855469 20.292969 18.785156 20.214844 18.726562 20.144531 C 18.667969 20.074219 18.621094 20.011719 18.589844 19.96875 C 18.554688 19.925781 18.539062 19.898438 18.539062 19.898438 " fill-opacity="1" fill-rule="nonzero"/><path fill="#ffffff" d="M 21.984375 19.226562 C 21.984375 19.226562 22.019531 19.246094 22.078125 19.285156 C 22.132812 19.320312 22.214844 19.375 22.308594 19.449219 C 22.402344 19.515625 22.507812 19.601562 22.621094 19.695312 C 22.730469 19.789062 22.84375 19.894531 22.957031 20 C 23.070312 20.109375 23.179688 20.21875 23.28125 20.324219 C 23.378906 20.429688 23.46875 20.53125 23.542969 20.621094 C 23.621094 20.710938 23.679688 20.789062 23.71875 20.84375 C 23.761719 20.898438 23.78125 20.933594 23.78125 20.933594 C 23.78125 20.933594 23.746094 20.914062 23.691406 20.875 C 23.632812 20.835938 23.550781 20.78125 23.457031 20.710938 C 23.363281 20.640625 23.257812 20.554688 23.148438 20.460938 C 23.035156 20.367188 22.921875 20.265625 22.808594 20.15625 C 22.695312 20.050781 22.585938 19.941406 22.488281 19.835938 C 22.386719 19.730469 22.296875 19.628906 22.222656 19.539062 C 22.148438 19.449219 22.085938 19.371094 22.046875 19.3125 C 22.003906 19.257812 21.984375 19.226562 21.984375 19.226562 " fill-opacity="1" fill-rule="nonzero"/><path fill="#ffffff" d="M 22.136719 20.078125 C 22.136719 20.078125 22.164062 20.09375 22.210938 20.125 C 22.253906 20.15625 22.320312 20.199219 22.394531 20.253906 C 22.46875 20.308594 22.550781 20.378906 22.640625 20.449219 C 22.726562 20.523438 22.816406 20.605469 22.90625 20.691406 C 23.082031 20.859375 23.25 21.039062 23.367188 21.179688 C 23.488281 21.320312 23.554688 21.425781 23.554688 21.425781 C 23.554688 21.425781 23.449219 21.363281 23.300781 21.25 C 23.152344 21.140625 22.964844 20.984375 22.789062 20.816406 C 22.699219 20.730469 22.613281 20.644531 22.535156 20.558594 C 22.457031 20.476562 22.382812 20.394531 22.324219 20.324219 C 22.265625 20.253906 22.21875 20.191406 22.1875 20.148438 C 22.15625 20.105469 22.136719 20.078125 22.136719 20.078125 " fill-opacity="1" fill-rule="nonzero"/><path fill="#d7d9c0" d="M 15.371094 10.714844 L 13.136719 10.714844 L 13.136719 9.792969 L 15.371094 9.792969 L 15.371094 10.714844 " fill-opacity="1" fill-rule="nonzero"/><path fill="#d7d9c0" d="M 17.167969 11.285156 L 14.988281 11.285156 L 14.988281 10.253906 L 17.167969 10.253906 L 17.167969 11.285156 " fill-opacity="1" fill-rule="nonzero"/><path fill="#46250f" d="M 13.097656 15.019531 L 13.097656 14.910156 L 8.707031 14.910156 L 8.707031 19.152344 L 13.207031 19.152344 L 13.207031 14.910156 L 13.097656 14.910156 L 13.097656 15.019531 L 12.992188 15.019531 L 12.992188 18.933594 L 8.925781 18.933594 L 8.925781 15.128906 L 13.097656 15.128906 L 13.097656 15.019531 L 12.992188 15.019531 L 13.097656 15.019531 " fill-opacity="1" fill-rule="nonzero"/><path fill="#46250f" d="M 13.097656 20.222656 L 13.097656 20.117188 L 8.707031 20.117188 L 8.707031 24.355469 L 13.207031 24.355469 L 13.207031 20.117188 L 13.097656 20.117188 L 13.097656 20.222656 L 12.992188 20.222656 L 12.992188 24.140625 L 8.925781 24.140625 L 8.925781 20.332031 L 13.097656 20.332031 L 13.097656 20.222656 L 12.992188 20.222656 L 13.097656 20.222656 " fill-opacity="1" fill-rule="nonzero"/><path fill="#f68712" d="M 13.617188 19.277344 C 13.617188 19.507812 13.429688 19.695312 13.195312 19.695312 C 12.960938 19.695312 12.773438 19.507812 12.773438 19.277344 C 12.773438 19.042969 12.960938 18.855469 13.195312 18.855469 C 13.429688 18.855469 13.617188 19.042969 13.617188 19.277344 " fill-opacity="1" fill-rule="nonzero"/><path fill="#f9a70d" d="M 13.390625 20.21875 C 13.390625 20.300781 13.324219 20.363281 13.246094 20.363281 C 13.164062 20.363281 13.097656 20.300781 13.097656 20.21875 L 13.097656 19.28125 C 13.097656 19.203125 13.164062 19.136719 13.246094 19.136719 C 13.324219 19.136719 13.390625 19.203125 13.390625 19.28125 L 13.390625 20.21875 " fill-opacity="1" fill-rule="nonzero"/><path fill="#f14624" d="M 20.820312 7.5 L 23.453125 9.792969 L 23.453125 5.203125 L 20.871094 5.203125 L 20.820312 7.5 " fill-opacity="1" fill-rule="nonzero"/></svg>